<?xml version="1.0" encoding="utf-8"?>
<!-- Generator: Adobe Illustrator 21.1.0, SVG Export Plug-In . SVG Version: 6.00 Build 0)  -->
<svg version="1.1" id="Layer_1" xmlns="http://www.w3.org/2000/svg" xmlns:xlink="http://www.w3.org/1999/xlink" x="0px" y="0px"
	 viewBox="0 0 560 560" style="enable-background:new 0 0 560 560;" xml:space="preserve">
<style type="text/css">
	.st0{fill:#FD6A77;}
	.st1{fill:#FFA224;}
	.st2{fill:#F9C50F;}
	.st3{fill:#007692;}
	.st4{fill:none;stroke:#FFA224;stroke-width:2;stroke-miterlimit:10;}
	.st5{clip-path:url(#SVGID_2_);fill:none;stroke:#FFA224;stroke-width:2;stroke-miterlimit:8;}
	.st6{clip-path:url(#SVGID_4_);}
	.st7{clip-path:url(#SVGID_7_);}
	.st8{clip-path:url(#SVGID_8_);fill:none;stroke:#FFA224;stroke-width:2;stroke-miterlimit:8;}
	.st9{clip-path:url(#SVGID_8_);}
	.st10{clip-path:url(#SVGID_10_);fill:none;stroke:#FFA224;stroke-width:2;stroke-miterlimit:10;}
	.st11{clip-path:url(#SVGID_4_);fill:none;stroke:#FD6A77;stroke-miterlimit:10;}
	.st12{clip-path:url(#SVGID_4_);fill:none;stroke:#FFFFFF;stroke-miterlimit:10;}
</style>
<g>
	<path class="st0" d="M104,187c-0.1-97.8,78.1-175.8,174.5-175.8S453,89.8,453,187s-77.5,218.6-173.8,218.6S104.1,284.8,104,187
		L104,187z"/>
	<path class="st1" d="M158.2,208.3C158.2,99.4,212.1,11,278.5,11s120.3,88.3,120.3,197.2S345,405.5,278.5,405.5
		S158.2,317.3,158.2,208.3L158.2,208.3z"/>
	<path class="st2" d="M212.3,208.3C212.3,99.4,242.5,11,279.5,11s67.2,88.3,67.2,197.2s-30.1,197.2-67.2,197.2
		S212.3,317.3,212.3,208.3L212.3,208.3z"/>
	<path class="st3" d="M328.6,461.3v37.8c0,20.9-22.4,37.8-50.1,37.8s-50.1-16.9-50.1-37.8v-37.8H328.6L328.6,461.3z"/>
	<line class="st4" x1="167.2" y1="346.5" x2="229" y2="462"/>
	<g>
		<g>
			<defs>
				<rect id="SVGID_1_" x="104" y="11.2" width="349" height="525.8"/>
			</defs>
			<clipPath id="SVGID_2_">
				<use xlink:href="#SVGID_1_"  style="overflow:visible;"/>
			</clipPath>
			<line class="st5" x1="401" y1="334.2" x2="328.6" y2="461.3"/>
		</g>
		<g>
			<defs>
				<rect id="SVGID_3_" x="104" y="11.2" width="349" height="525.8"/>
			</defs>
			<clipPath id="SVGID_4_">
				<use xlink:href="#SVGID_3_"  style="overflow:visible;"/>
			</clipPath>
			<g class="st6">
				<g>
					<defs>
						<rect id="SVGID_5_" x="104" y="11.2" width="349" height="525.8"/>
					</defs>
					<defs>
						<rect id="SVGID_6_" x="104" y="11.2" width="349" height="525.8"/>
					</defs>
					<clipPath id="SVGID_7_">
						<use xlink:href="#SVGID_5_"  style="overflow:visible;"/>
					</clipPath>
					<clipPath id="SVGID_8_" class="st7">
						<use xlink:href="#SVGID_6_"  style="overflow:visible;"/>
					</clipPath>
					<line class="st8" x1="305.5" y1="402.5" x2="305.6" y2="461.6"/>
					<g class="st9">
						<g>
							<defs>
								<rect id="SVGID_9_" x="104" y="11.2" width="349" height="525.8"/>
							</defs>
							<clipPath id="SVGID_10_">
								<use xlink:href="#SVGID_9_"  style="overflow:visible;"/>
							</clipPath>
							<line class="st10" x1="253.4" y1="402.5" x2="253.4" y2="461.6"/>
						</g>
					</g>
				</g>
			</g>
			<line class="st11" x1="278.5" y1="405.5" x2="279.2" y2="405.5"/>
			<line class="st12" x1="279.5" y1="11.2" x2="279.5" y2="405.5"/>
		</g>
	</g>
</g>
</svg>
